<svg xmlns="http://www.w3.org/2000/svg" width="1800" height="720" viewBox="0 0 1800 720">
<rect width="100%" height="100%" fill="#ffffff"/>
<text x="900" y="34" text-anchor="middle" font-size="24" font-family="sans-serif" font-weight="700">D5 同条件能耗对照（软件演示，非实船节能率）</text>
<text x="900" y="61" text-anchor="middle" font-size="14" font-family="sans-serif" fill="#555">蓝：最快可行基线　绿：最低能耗策略；两者使用相同航线、网格、时间、SOC、功率和限速约束</text>
<line x1="90" y1="530" x2="1760" y2="530" stroke="#333"/>
<line x1="90" y1="90" x2="90" y2="530" stroke="#333"/>
<line x1="90" y1="530.00" x2="1760" y2="530.00" stroke="#e5e7eb"/>
<text x="80" y="535.00" text-anchor="end" font-size="12" font-family="sans-serif">0</text>
<line x1="90" y1="442.00" x2="1760" y2="442.00" stroke="#e5e7eb"/>
<text x="80" y="447.00" text-anchor="end" font-size="12" font-family="sans-serif">109</text>
<line x1="90" y1="354.00" x2="1760" y2="354.00" stroke="#e5e7eb"/>
<text x="80" y="359.00" text-anchor="end" font-size="12" font-family="sans-serif">218</text>
<line x1="90" y1="266.00" x2="1760" y2="266.00" stroke="#e5e7eb"/>
<text x="80" y="271.00" text-anchor="end" font-size="12" font-family="sans-serif">327</text>
<line x1="90" y1="178.00" x2="1760" y2="178.00" stroke="#e5e7eb"/>
<text x="80" y="183.00" text-anchor="end" font-size="12" font-family="sans-serif">436</text>
<line x1="90" y1="90.00" x2="1760" y2="90.00" stroke="#e5e7eb"/>
<text x="80" y="95.00" text-anchor="end" font-size="12" font-family="sans-serif">545</text>
<rect x="99.39" y="90.00" width="16.70" height="440.00" fill="#2563eb"/>
<rect x="116.09" y="90.00" width="16.70" height="440.00" fill="#16a34a"/>
<text transform="translate(116.09,544) rotate(65)" font-size="9" font-family="sans-serif">forward_west__tight_high_soc</text>
<rect x="151.58" y="90.00" width="16.70" height="440.00" fill="#2563eb"/>
<rect x="168.28" y="206.17" width="16.70" height="323.83" fill="#16a34a"/>
<text transform="translate(168.28,544) rotate(65)" font-size="9" font-family="sans-serif">forward_west__balanced_high_soc</text>
<rect x="203.77" y="90.00" width="16.70" height="440.00" fill="#2563eb"/>
<rect x="220.47" y="230.07" width="16.70" height="299.93" fill="#16a34a"/>
<text transform="translate(220.47,544) rotate(65)" font-size="9" font-family="sans-serif">forward_west__relaxed_high_soc</text>
<rect x="255.96" y="90.00" width="16.70" height="440.00" fill="#2563eb"/>
<rect x="272.66" y="230.07" width="16.70" height="299.93" fill="#16a34a"/>
<text transform="translate(272.66,544) rotate(65)" font-size="9" font-family="sans-serif">forward_west__relaxed_mid_soc</text>
<rect x="308.14" y="90.00" width="16.70" height="440.00" fill="#2563eb"/>
<rect x="324.84" y="90.00" width="16.70" height="440.00" fill="#16a34a"/>
<text transform="translate(324.84,544) rotate(65)" font-size="9" font-family="sans-serif">reverse_west__tight_high_soc</text>
<rect x="360.33" y="90.00" width="16.70" height="440.00" fill="#2563eb"/>
<rect x="377.03" y="206.17" width="16.70" height="323.83" fill="#16a34a"/>
<text transform="translate(377.03,544) rotate(65)" font-size="9" font-family="sans-serif">reverse_west__balanced_high_soc</text>
<rect x="412.52" y="90.00" width="16.70" height="440.00" fill="#2563eb"/>
<rect x="429.22" y="230.07" width="16.70" height="299.93" fill="#16a34a"/>
<text transform="translate(429.22,544) rotate(65)" font-size="9" font-family="sans-serif">reverse_west__relaxed_high_soc</text>
<rect x="464.71" y="90.00" width="16.70" height="440.00" fill="#2563eb"/>
<rect x="481.41" y="230.07" width="16.70" height="299.93" fill="#16a34a"/>
<text transform="translate(481.41,544) rotate(65)" font-size="9" font-family="sans-serif">reverse_west__relaxed_mid_soc</text>
<rect x="516.89" y="139.76" width="16.70" height="390.24" fill="#2563eb"/>
<rect x="533.59" y="139.76" width="16.70" height="390.24" fill="#16a34a"/>
<text transform="translate(533.59,544) rotate(65)" font-size="9" font-family="sans-serif">forward_mid_west__tight_high_soc</text>
<rect x="569.08" y="139.76" width="16.70" height="390.24" fill="#2563eb"/>
<rect x="585.78" y="243.11" width="16.70" height="286.89" fill="#16a34a"/>
<text transform="translate(585.78,544) rotate(65)" font-size="9" font-family="sans-serif">forward_mid_west__balanced_high_soc</text>
<rect x="621.27" y="139.76" width="16.70" height="390.24" fill="#2563eb"/>
<rect x="637.97" y="263.99" width="16.70" height="266.01" fill="#16a34a"/>
<text transform="translate(637.97,544) rotate(65)" font-size="9" font-family="sans-serif">forward_mid_west__relaxed_high_soc</text>
<rect x="673.46" y="139.76" width="16.70" height="390.24" fill="#2563eb"/>
<rect x="690.16" y="263.99" width="16.70" height="266.01" fill="#16a34a"/>
<text transform="translate(690.16,544) rotate(65)" font-size="9" font-family="sans-serif">forward_mid_west__relaxed_mid_soc</text>
<rect x="725.64" y="139.76" width="16.70" height="390.24" fill="#2563eb"/>
<rect x="742.34" y="139.76" width="16.70" height="390.24" fill="#16a34a"/>
<text transform="translate(742.34,544) rotate(65)" font-size="9" font-family="sans-serif">reverse_mid_west__tight_high_soc</text>
<rect x="777.83" y="139.76" width="16.70" height="390.24" fill="#2563eb"/>
<rect x="794.53" y="243.11" width="16.70" height="286.89" fill="#16a34a"/>
<text transform="translate(794.53,544) rotate(65)" font-size="9" font-family="sans-serif">reverse_mid_west__balanced_high_soc</text>
<rect x="830.02" y="139.76" width="16.70" height="390.24" fill="#2563eb"/>
<rect x="846.72" y="263.99" width="16.70" height="266.01" fill="#16a34a"/>
<text transform="translate(846.72,544) rotate(65)" font-size="9" font-family="sans-serif">reverse_mid_west__relaxed_high_soc</text>
<rect x="882.21" y="139.76" width="16.70" height="390.24" fill="#2563eb"/>
<rect x="898.91" y="263.99" width="16.70" height="266.01" fill="#16a34a"/>
<text transform="translate(898.91,544) rotate(65)" font-size="9" font-family="sans-serif">reverse_mid_west__relaxed_mid_soc</text>
<rect x="934.39" y="116.14" width="16.70" height="413.86" fill="#2563eb"/>
<rect x="951.09" y="116.14" width="16.70" height="413.86" fill="#16a34a"/>
<text transform="translate(951.09,544) rotate(65)" font-size="9" font-family="sans-serif">forward_mid_east__tight_high_soc</text>
<rect x="986.58" y="116.14" width="16.70" height="413.86" fill="#2563eb"/>
<rect x="1003.28" y="225.40" width="16.70" height="304.60" fill="#16a34a"/>
<text transform="translate(1003.28,544) rotate(65)" font-size="9" font-family="sans-serif">forward_mid_east__balanced_high_soc</text>
<rect x="1038.77" y="116.14" width="16.70" height="413.86" fill="#2563eb"/>
<rect x="1055.47" y="247.89" width="16.70" height="282.11" fill="#16a34a"/>
<text transform="translate(1055.47,544) rotate(65)" font-size="9" font-family="sans-serif">forward_mid_east__relaxed_high_soc</text>
<rect x="1090.96" y="116.14" width="16.70" height="413.86" fill="#2563eb"/>
<rect x="1107.66" y="247.89" width="16.70" height="282.11" fill="#16a34a"/>
<text transform="translate(1107.66,544) rotate(65)" font-size="9" font-family="sans-serif">forward_mid_east__relaxed_mid_soc</text>
<rect x="1143.14" y="116.14" width="16.70" height="413.86" fill="#2563eb"/>
<rect x="1159.84" y="116.14" width="16.70" height="413.86" fill="#16a34a"/>
<text transform="translate(1159.84,544) rotate(65)" font-size="9" font-family="sans-serif">reverse_mid_east__tight_high_soc</text>
<rect x="1195.33" y="116.14" width="16.70" height="413.86" fill="#2563eb"/>
<rect x="1212.03" y="225.40" width="16.70" height="304.60" fill="#16a34a"/>
<text transform="translate(1212.03,544) rotate(65)" font-size="9" font-family="sans-serif">reverse_mid_east__balanced_high_soc</text>
<rect x="1247.52" y="116.14" width="16.70" height="413.86" fill="#2563eb"/>
<rect x="1264.22" y="247.89" width="16.70" height="282.11" fill="#16a34a"/>
<text transform="translate(1264.22,544) rotate(65)" font-size="9" font-family="sans-serif">reverse_mid_east__relaxed_high_soc</text>
<rect x="1299.71" y="116.14" width="16.70" height="413.86" fill="#2563eb"/>
<rect x="1316.41" y="247.89" width="16.70" height="282.11" fill="#16a34a"/>
<text transform="translate(1316.41,544) rotate(65)" font-size="9" font-family="sans-serif">reverse_mid_east__relaxed_mid_soc</text>
<rect x="1351.89" y="120.50" width="16.70" height="409.50" fill="#2563eb"/>
<rect x="1368.59" y="120.50" width="16.70" height="409.50" fill="#16a34a"/>
<text transform="translate(1368.59,544) rotate(65)" font-size="9" font-family="sans-serif">forward_east__tight_high_soc</text>
<rect x="1404.08" y="120.50" width="16.70" height="409.50" fill="#2563eb"/>
<rect x="1420.78" y="228.61" width="16.70" height="301.39" fill="#16a34a"/>
<text transform="translate(1420.78,544) rotate(65)" font-size="9" font-family="sans-serif">forward_east__balanced_high_soc</text>
<rect x="1456.27" y="120.50" width="16.70" height="409.50" fill="#2563eb"/>
<rect x="1472.97" y="250.85" width="16.70" height="279.15" fill="#16a34a"/>
<text transform="translate(1472.97,544) rotate(65)" font-size="9" font-family="sans-serif">forward_east__relaxed_high_soc</text>
<rect x="1508.46" y="120.50" width="16.70" height="409.50" fill="#2563eb"/>
<rect x="1525.16" y="250.85" width="16.70" height="279.15" fill="#16a34a"/>
<text transform="translate(1525.16,544) rotate(65)" font-size="9" font-family="sans-serif">forward_east__relaxed_mid_soc</text>
<rect x="1560.64" y="120.50" width="16.70" height="409.50" fill="#2563eb"/>
<rect x="1577.34" y="120.50" width="16.70" height="409.50" fill="#16a34a"/>
<text transform="translate(1577.34,544) rotate(65)" font-size="9" font-family="sans-serif">reverse_east__tight_high_soc</text>
<rect x="1612.83" y="120.50" width="16.70" height="409.50" fill="#2563eb"/>
<rect x="1629.53" y="228.61" width="16.70" height="301.39" fill="#16a34a"/>
<text transform="translate(1629.53,544) rotate(65)" font-size="9" font-family="sans-serif">reverse_east__balanced_high_soc</text>
<rect x="1665.02" y="120.50" width="16.70" height="409.50" fill="#2563eb"/>
<rect x="1681.72" y="250.85" width="16.70" height="279.15" fill="#16a34a"/>
<text transform="translate(1681.72,544) rotate(65)" font-size="9" font-family="sans-serif">reverse_east__relaxed_high_soc</text>
<rect x="1717.21" y="120.50" width="16.70" height="409.50" fill="#2563eb"/>
<rect x="1733.91" y="250.85" width="16.70" height="279.15" fill="#16a34a"/>
<text transform="translate(1733.91,544) rotate(65)" font-size="9" font-family="sans-serif">reverse_east__relaxed_mid_soc</text>
<text transform="translate(24,310.0) rotate(-90)" text-anchor="middle" font-size="14" font-family="sans-serif">总需求能量（kWh）</text>
</svg>
